<svg width="59" height="59" viewBox="0 0 59 59" fill="none" xmlns="http://www.w3.org/2000/svg">
<rect x="0.5" y="0.5" width="58" height="58" rx="9.5" fill="#D9D9D9" stroke="black"/>
<path d="M24.3214 17.8929H24C24.1768 17.8929 24.3214 17.7482 24.3214 17.5714V17.8929H36.5357V17.5714C36.5357 17.7482 36.6804 17.8929 36.8571 17.8929H36.5357V20.7857H39.4286V17.5714C39.4286 16.1531 38.2754 15 36.8571 15H24C22.5817 15 21.4286 16.1531 21.4286 17.5714V20.7857H24.3214V17.8929ZM44.5714 20.7857H16.2857C15.5746 20.7857 15 21.3603 15 22.0714V23.3571C15 23.5339 15.1446 23.6786 15.3214 23.6786H17.7482L18.7406 44.692C18.8049 46.0621 19.9379 47.1429 21.308 47.1429H39.5491C40.9232 47.1429 42.0522 46.0661 42.1165 44.692L43.1089 23.6786H45.5357C45.7125 23.6786 45.8571 23.5339 45.8571 23.3571V22.0714C45.8571 21.3603 45.2826 20.7857 44.5714 20.7857ZM39.2397 44.25H21.6174L20.6451 23.6786H40.2121L39.2397 44.25Z" fill="black" fill-opacity="0.85"/>
</svg>
