<svg width="1088" height="458" viewBox="0 0 1088 458" fill="none" xmlns="http://www.w3.org/2000/svg">
<g clip-path="url(#clip0_1438_3979)">
<rect y="130" width="1088" height="328" rx="32" fill="#2D6A4F"/>
<circle cx="94.4138" cy="259.093" r="28.093" fill="#004440"/>
<circle cx="274.209" cy="375.21" r="11.2372" fill="#004440"/>
<path d="M272.23 264.321C281.458 287.057 270.507 312.969 247.771 322.197C245.263 323.215 242.716 323.987 240.158 324.525C225.919 327.519 210.019 331.592 202.4 343.987C193.505 358.459 198.366 377.253 211.501 388.026C237.69 409.505 258.881 437.815 272.046 471.625C312.916 576.585 260.961 694.803 156.001 735.672C51.0414 776.542 -67.1765 724.587 -108.046 619.627C-148.916 514.668 -96.9605 396.45 7.99901 355.58C53.8432 337.729 102.217 337.587 145.57 351.835C161.272 356.996 179.175 352.106 187.83 338.024L191.049 332.788C197.431 322.404 194.479 309.031 189.895 297.737C180.667 275.001 191.618 249.089 214.354 239.862C237.091 230.634 263.003 241.585 272.23 264.321Z" fill="#004440"/>
</g>
<ellipse cx="144" cy="91.5" rx="92" ry="91.5" fill="#133B5C"/>
<path d="M86 208V162L140 180.596L86 208Z" fill="#133B5C"/>
<path fill-rule="evenodd" clip-rule="evenodd" d="M177.109 66.9324C178.438 67.9393 178.691 69.8363 177.673 71.1562L143.308 115.689C142.17 117.164 140.445 118.08 138.575 118.203C136.706 118.326 134.874 117.644 133.549 116.331L110.628 93.6171C109.444 92.4434 109.444 90.529 110.628 89.3553L115.559 84.4696C116.728 83.3108 118.613 83.3108 119.782 84.4696L137.491 102.019L167.378 63.2892C168.384 61.9856 170.253 61.7364 171.565 62.731L177.109 66.9324Z" fill="white"/>
<defs>
<clipPath id="clip0_1438_3979">
<rect y="130" width="1088" height="328" rx="32" fill="white"/>
</clipPath>
</defs>
</svg>
