<svg width="1088" height="459" viewBox="0 0 1088 459" fill="none" xmlns="http://www.w3.org/2000/svg">
<g clip-path="url(#clip0_1438_3993)">
<rect y="131" width="1088" height="328" rx="32" fill="#F05454"/>
<circle cx="33.9429" cy="212.829" r="6.82918" fill="#AF2D2D"/>
<circle cx="79" cy="203" r="13" fill="#AF2D2D"/>
<path fill-rule="evenodd" clip-rule="evenodd" d="M32.5511 225.439C32.4191 224.778 31.9357 224.243 31.2918 224.044C30.5686 223.821 29.7827 224.065 29.3124 224.658L26.6097 228.065C24.7585 230.398 21.7904 231.502 18.8235 231.237C11.5519 230.589 4.04597 231.17 -3.42021 233.141C-37.9518 242.255 -58.5567 277.637 -49.4425 312.169C-40.3282 346.7 -4.9463 367.305 29.5853 358.191C64.1169 349.077 84.7218 313.695 75.6076 279.163C70.3813 259.362 56.5177 244.14 39.13 236.475C36.2342 235.198 34.0008 232.697 33.3809 229.593L32.5511 225.439Z" fill="#AF2D2D"/>
<circle cx="21.5475" cy="180.548" r="3.49096" transform="rotate(-22.0902 21.5475 180.548)" fill="#AF2D2D"/>
</g>
<path fill-rule="evenodd" clip-rule="evenodd" d="M206.437 180.896C206.766 180.688 207.125 180.528 207.499 180.42C245.905 169.365 274 133.963 274 92C274 41.1898 232.81 0 182 0C131.19 0 90 41.1898 90 92C90 128.196 110.903 159.51 141.296 174.529C141.33 174.546 141.316 174.598 141.278 174.595C141.254 174.593 141.235 174.616 141.242 174.64L152.206 209.358C152.997 211.863 155.946 212.938 158.164 211.531L206.437 180.896Z" fill="#AF2D2D"/>
<path d="M216.886 67.8557C219.705 65.0374 219.705 60.468 216.886 57.6497L215.35 56.1137C212.532 53.2954 207.963 53.2954 205.144 56.1137L183.5 77.758L161.856 56.1137C159.037 53.2954 154.468 53.2954 151.65 56.1137L150.114 57.6497C147.295 60.468 147.295 65.0374 150.114 67.8557L171.758 89.5L150.114 111.144C147.295 113.963 147.295 118.532 150.114 121.35L151.65 122.886C154.468 125.705 159.037 125.705 161.856 122.886L183.5 101.242L205.144 122.886C207.963 125.705 212.532 125.705 215.35 122.886L216.886 121.35C219.705 118.532 219.705 113.963 216.886 111.144L195.242 89.5L216.886 67.8557Z" fill="white"/>
<defs>
<clipPath id="clip0_1438_3993">
<rect y="131" width="1088" height="328" rx="32" fill="white"/>
</clipPath>
</defs>
</svg>
